<svg width="1680" height="249" fill="none" xmlns="http://www.w3.org/2000/svg"><path d="M182.579 0h-13.486v13.657h5.292V5.292h8.194V0zM202.381 5.292h-8.194V0h13.486v13.657h-5.292V5.292zM194.358 31.2402h8.194v-8.365h5.292v13.657h-13.486v-5.292zM169.093 36.5322v-13.657h5.292v8.365h8.194v5.292h-13.486zM169.093 66.748V53.0913h13.486v5.292h-8.194v8.3647h-5.292zM202.381 58.3833h-8.194v-5.4629h13.486v13.657h-5.292v-8.1941zM194.358 84.3313h8.194v-8.3647h5.292v13.6569h-13.486v-5.2922zM169.093 89.6235V75.9666h5.292v8.3647h8.194v5.2922h-13.486zM169.093 119.839v-13.657h13.486v5.292h-8.194v8.365h-5.292zM202.381 111.474h-8.194v-5.292h13.486v13.657h-5.292v-8.365zM194.358 137.423h8.194v-8.365h5.292v13.657h-13.486v-5.292zM169.093 142.715v-13.657h5.292v8.365h8.194v5.292h-13.486zM169.093 172.931v-13.657h13.486v5.292h-8.194v8.365h-5.292zM202.381 164.566h-8.194v-5.292h13.486v13.657h-5.292v-8.365zM194.358 190.343h8.194v-8.365h5.292v13.657h-13.486v-5.292zM169.093 195.806v-13.657h5.292v8.365h8.194v5.292h-13.486zM347.827 58.3833h-8.194v8.3647h-5.292V53.0913h13.486v5.292zM367.63 58.3833h-8.194v-5.4629h13.486v13.657h-5.292v-8.1941zM359.436 84.3313h8.194v-8.3647h5.292v13.6569h-13.486v-5.2922zM334.341 75.9666h5.292v8.3647h8.194v5.2922h-13.486V75.9666zM284.664 119.669h-5.292v-13.657h13.486v5.292h-8.194v8.365zM317.953 119.669h-5.292v-8.365h-8.194v-5.292h13.486v13.657zM317.953 129.058v13.657h-13.486v-5.292h8.194v-8.365h5.292zM279.372 142.715v-13.657h5.292v8.365h8.194v5.292h-13.486zM347.827 111.474h-8.194v8.365h-5.292v-13.657h13.486v5.292zM367.63 111.474h-8.194v-5.292h13.486v13.657h-5.292v-8.365zM359.436 137.423h8.194v-8.365h5.292v13.657h-13.486v-5.292zM334.341 129.058h5.292v8.365h8.194v5.292h-13.486v-13.657zM284.664 172.76h-5.292v-13.657h13.486v5.292h-8.194v8.365zM317.953 159.103v13.657h-5.292v-8.365h-8.194v-5.292h13.486zM317.953 181.978v13.657h-13.486v-5.292h8.194v-8.365h5.292zM279.372 195.806v-13.657h5.292v8.365h8.194v5.292h-13.486zM347.827 164.566h-8.194v8.365h-5.292v-13.657h13.486v5.292zM367.63 164.566h-8.194v-5.292h13.486v13.657h-5.292v-8.365zM359.436 190.343h8.194v-8.365h5.292v13.657h-13.486v-5.292zM334.341 182.149h5.292v8.365h8.194v5.292h-13.486v-13.657zM-51.125 66.748V53.0913h13.4862v5.292h-8.1941v8.3647h-5.2921zM-26.0304 53.0913h13.4862v13.4861h-5.2921v-8.1941h-8.1941v-5.292zM-12.5442 75.9666v13.6569h-13.4862v-5.2922h8.1941v-8.3647h5.2921zM-51.125 89.6235V75.9666h5.2921v8.3647h8.1941v5.2922H-51.125zM3.844 66.748V53.0913h13.4862v5.292H9.1361v8.3647H3.844zM37.1327 58.3833h-8.1941v-5.4629h13.4862v13.657h-5.2921v-8.1941zM29.1093 84.3313h8.1942v-8.3647h5.292v13.6569H29.1093v-5.2922zM9.3068 84.3313h8.1941v5.2922H4.0147V75.9666h5.2921v8.3647zM-45.8329 119.669h-5.2921v-13.657h13.4862v5.292h-8.1941v8.365zM-12.5442 106.012v13.657h-5.2921v-8.365h-8.1941v-5.292h13.4862zM-12.5442 129.058v13.657h-13.4862v-5.292h8.1941v-8.365h5.2921zM-51.125 142.715v-13.657h5.2921v8.365h8.1941v5.292H-51.125zM9.136 119.669H3.844v-13.657h13.4862v5.292H9.1361v8.365zM37.1327 111.474h-8.1941v-5.292h13.4862v13.657h-5.2921v-8.365zM29.1093 137.423h8.1942v-8.365h5.292v13.657H29.1093v-5.292zM9.3068 137.423h8.1941v5.292H4.0147v-13.657h5.2921v8.365zM-45.8329 172.76h-5.2921v-13.657h13.4862v5.292h-8.1941v8.365zM-12.5442 159.103v13.657h-5.2921v-8.365h-8.1941v-5.292h13.4862zM-12.5442 181.978v13.657h-13.4862v-5.292h8.1941v-8.365h5.2921zM-51.125 195.806v-13.657h5.2921v8.365h8.1941v5.292H-51.125zM9.136 172.76H3.844v-13.657h13.4862v5.292H9.1361v8.365zM37.1327 164.566h-8.1941v-5.292h13.4862v13.657h-5.2921v-8.365zM29.1093 190.343h8.1942v-8.365h5.292v13.657H29.1093v-5.292zM9.3068 190.343h8.1941v5.292H4.0147v-13.657h5.2921v8.365zM127.61 5.292h-8.194v8.365h-5.292V0h13.486v5.292zM147.242 5.292h-8.195V0h13.487v13.657h-5.292V5.292zM139.218 31.2402h8.194v-8.365h5.292v13.657h-13.486v-5.292zM114.124 22.8752h5.292v8.365h8.194v5.292h-13.486v-13.657zM127.61 53.0913v5.292h-8.194v8.3647h-5.292V53.0913h13.486zM147.242 58.3833h-8.195v-5.4629h13.487v13.657h-5.292v-8.1941zM139.218 84.3313h8.194v-8.3647h5.292v13.6569h-13.486v-5.2922zM114.124 75.9666h5.292v8.3647h8.194v5.2922h-13.486V75.9666zM64.2758 119.669h-5.292v-13.657H72.47v5.292h-8.1942v8.365zM92.2725 111.474h-8.1941v-5.292h13.4861v13.657h-5.292v-8.365zM84.0784 137.423h8.1941v-8.365h5.292v13.657H84.0784v-5.292zM58.9838 142.715v-13.657h5.292v8.365H72.47v5.292H58.9838zM127.61 106.182v5.292h-8.194v8.365h-5.292v-13.657h13.486zM147.242 111.474h-8.195v-5.292h13.487v13.657h-5.292v-8.365zM139.218 137.423h8.194v-8.365h5.292v13.657h-13.486v-5.292zM114.124 129.058h5.292v8.365h8.194v5.292h-13.486v-13.657zM64.2758 172.76h-5.292v-13.657H72.47v5.292h-8.1942v8.365zM92.2725 164.566h-8.1941v-5.292h13.4861v13.657h-5.292v-8.365zM84.0784 190.343h8.1941v-8.365h5.292v13.657H84.0784v-5.292zM58.9838 195.806v-13.657h5.292v8.365H72.47v5.292H58.9838zM127.61 159.274v5.292h-8.194v8.365h-5.292v-13.657h13.486zM147.242 164.566h-8.195v-5.292h13.487v13.657h-5.292v-8.365zM139.218 190.343h8.194v-8.365h5.292v13.657h-13.486v-5.292zM114.124 182.149h5.292v8.365h8.194v5.292h-13.486v-13.657zM169.093 225.851v-13.486l13.486-.171v5.292h-8.194v8.365h-5.292zM202.381 217.657h-8.194v-5.292h13.486v13.657h-5.292v-8.365zM194.358 243.435h8.194v-8.366h5.292v13.658h-13.486v-5.292zM169.093 248.897V235.24h5.292v8.365h8.194v5.292h-13.486zM224.232 225.851v-13.486l13.487-.171v5.292h-8.195v8.365h-5.292zM257.521 217.657h-8.194v-5.292h13.486v13.657h-5.292v-8.365zM249.327 243.435h8.194v-8.366h5.292v13.658h-13.486v-5.292zM229.524 243.435h8.195v5.292h-13.487v-13.658h5.292v8.366zM279.372 225.851v-13.486l13.486-.171v5.292h-8.194v8.365h-5.292zM304.467 212.365h13.486v13.657h-5.292v-8.365h-8.194v-5.292zM304.467 243.435h8.194v-8.366h5.292v13.658h-13.486v-5.292zM279.372 248.897V235.24h5.292v8.365h8.194v5.292h-13.486zM347.827 217.657h-8.194v8.194h-5.292v-13.486h13.486v5.292zM367.63 217.657h-8.194v-5.292h13.486v13.657h-5.292v-8.365zM359.436 243.435h8.194v-8.366h5.292v13.658h-13.486v-5.292zM334.341 235.24h5.292v8.365h8.194v5.292h-13.486V235.24zM-51.125 225.851v-13.486l13.4862-.171v5.292h-8.1941v8.365h-5.2921zM-26.0304 212.365h13.4862v13.657h-5.2921v-8.365h-8.1941v-5.292zM-26.0304 243.435h8.1941v-8.366h5.2921v13.658h-13.4862v-5.292zM-51.125 248.897V235.24h5.2921v8.365h8.1941v5.292H-51.125zM3.844 225.851v-13.486l13.4862-.171v5.292H9.1361v8.365H3.844zM37.1327 217.657h-8.1941v-5.292h13.4862v13.657h-5.2921v-8.365zM29.1093 243.435h8.1942v-8.366h5.292v13.658H29.1093v-5.292zM9.3068 243.435h8.1941v5.292H4.0147v-13.658h5.2921v8.366zM58.9838 225.851v-13.486l13.4862-.171v5.292h-8.1942v8.365h-5.292zM92.2725 217.657h-8.1941v-5.292h13.4861v13.657h-5.292v-8.365zM84.0784 243.435h8.1941v-8.366h5.292v13.658H84.0784v-5.292zM58.9838 248.897V235.24h5.292v8.365H72.47v5.292H58.9838zM127.61 212.365v5.121h-8.194v8.365h-5.292v-13.486h13.486zM147.242 217.657h-8.195v-5.292h13.487v13.657h-5.292v-8.365zM139.218 243.435h8.194v-8.366h5.292v13.658h-13.486v-5.292zM114.124 235.24h5.292v8.365h8.194v5.292h-13.486V235.24zM665.521 66.748V53.0913h13.486v5.292h-8.194v8.3647h-5.292zM698.81 58.3833h-8.194v-5.4629h13.486v13.657h-5.292v-8.1941zM690.616 84.3313h8.194v-8.3647h5.292v13.6569h-13.486v-5.2922zM665.521 75.9666h5.292v8.3647h8.194v5.2922h-13.486V75.9666zM670.813 119.669h-5.292v-13.657h13.486v5.292h-8.194v8.365zM698.81 111.474h-8.194v-5.292h13.486v13.657h-5.292v-8.365zM690.616 137.423h8.194v-8.365h5.292v13.657h-13.486v-5.292zM665.521 129.058h5.292v8.365h8.194v5.292h-13.486v-13.657zM670.813 172.76h-5.292v-13.657h13.486v5.292h-8.194v8.365zM698.81 164.566h-8.194v-5.292h13.486v13.657h-5.292v-8.365zM690.616 190.343h8.194v-8.365h5.292v13.657h-13.486v-5.292zM665.521 182.149h5.292v8.365h8.194v5.292h-13.486v-13.657zM720.661 66.748V53.0913h13.486v5.292h-8.194v8.3647h-5.292zM753.95 58.3833h-8.195v-5.4629h13.487v13.657h-5.292v-8.1941zM745.755 84.3313h8.195v-8.3647h5.292v13.6569h-13.487v-5.2922zM734.147 84.3313v5.2922h-13.486V75.9666h5.292v8.3647h8.194zM775.63 66.748V53.0913h13.486v5.292h-8.194v8.3647h-5.292zM800.724 58.3833v-5.4629h13.487v13.657h-5.292v-8.1941h-8.195zM800.724 84.3313h8.195v-8.3647h5.292v13.6569h-13.487v-5.2922zM789.287 84.3313v5.2922h-13.486V75.9666h5.292v8.3647h8.194zM720.661 119.839v-13.657h13.486v5.292h-8.194v8.365h-5.292zM753.95 111.474h-8.195v-5.292h13.487v13.657h-5.292v-8.365zM745.755 137.423h8.195v-8.365h5.292v13.657h-13.487v-5.292zM734.147 142.715h-13.486v-13.657h5.292v8.365h8.194v5.292zM775.63 119.839v-13.657h13.486v5.292h-8.194v8.365h-5.292zM808.919 111.474h-8.195v-5.292h13.487v13.657h-5.292v-8.365zM800.724 137.423h8.195v-8.365h5.292v13.657h-13.487v-5.292zM789.116 142.715H775.63v-13.657h5.292v8.365h8.194v5.292zM720.661 172.931v-13.657h13.486v5.292h-8.194v8.365h-5.292zM753.95 164.566h-8.195v-5.292h13.487v13.657h-5.292v-8.365zM745.755 190.343h8.195v-8.365h5.292v13.657h-13.487v-5.292zM734.147 195.635h-13.486v-13.657h5.292v8.365h8.194v5.292zM775.63 172.931v-13.657h13.486v5.292h-8.194v8.365h-5.292zM808.919 164.566h-8.195v-5.292h13.487v13.657h-5.292v-8.365zM800.724 190.343h8.195v-8.365h5.292v13.657h-13.487v-5.292zM789.116 195.635H775.63v-13.657h5.292v8.365h8.194v5.292zM390.164 66.748V53.0913h13.486v5.292h-8.194v8.3647h-5.292zM415.258 53.0913h13.486v13.4861h-5.292v-8.1941h-8.194v-5.292zM428.744 75.9666v13.6569h-13.486v-5.2922h8.194v-8.3647h5.292zM395.456 84.3313h8.194v5.2922h-13.486V75.9666h5.292v8.3647zM395.456 119.669h-5.292v-13.657h13.486v5.292h-8.194v8.365zM423.452 111.474h-8.194v-5.292h13.486v13.657h-5.292v-8.365zM428.744 142.715h-13.486v-5.292h8.194v-8.365h5.292v13.657zM395.456 137.423h8.194v5.292h-13.486v-13.657h5.292v8.365zM395.456 172.76h-5.292v-13.657h13.486v5.292h-8.194v8.365zM423.452 164.566h-8.194v-5.292h13.486v13.657h-5.292v-8.365zM428.744 195.635h-13.486v-5.292h8.194v-8.365h5.292v13.657zM395.456 190.343h8.194v5.292h-13.486v-13.657h5.292v8.365zM450.596 172.76h-5.293v-13.657h13.487v5.292h-8.194v8.365zM470.227 164.566v-5.292h13.487v13.657h-5.292v-8.365h-8.195zM470.398 190.343h8.194v-8.365h5.292v13.657h-13.486v-5.292zM450.596 190.343h8.194v5.292h-13.487v-13.657h5.293v8.365zM513.759 111.474h-8.194v8.365h-5.292v-13.657h13.486v5.292zM525.367 111.474v-5.292h13.486v13.657h-5.292v-8.365h-8.194zM525.538 137.423h8.194v-8.365h5.292v13.657h-13.486v-5.292zM500.273 129.058h5.292v8.365h8.194v5.292h-13.486v-13.657zM560.704 119.669h-5.292v-13.657h13.486v5.292h-8.194v8.365zM580.507 111.474v-5.292h13.486v13.657h-5.292v-8.365h-8.194zM580.507 137.423h8.194v-8.365h5.292v13.657h-13.486v-5.292zM555.412 142.715v-13.657h5.292v8.365h8.194v5.292h-13.486zM513.929 159.274v5.292h-8.364v8.365h-5.292v-13.657h13.656zM525.367 164.566v-5.292h13.486v13.657h-5.292v-8.365h-8.194zM525.538 190.343h8.194v-8.365h5.292v13.657h-13.486v-5.292zM500.273 182.149h5.292v8.365h8.194v5.292h-13.486v-13.657zM560.704 172.76h-5.292v-13.657h13.486v5.292h-8.194v8.365zM580.507 164.566v-5.292h13.486v13.657h-5.292v-8.365h-8.194zM580.507 190.343h8.194v-8.365h5.292v13.657h-13.486v-5.292zM555.412 195.806v-13.657h5.292v8.365h8.194v5.292h-13.486zM678.154 217.657h-8.194v8.194h-5.293v-13.486h13.487v5.292zM703.248 225.851h-5.292v-8.365h-8.194v-5.292h13.486v13.657zM697.956 235.24h5.292v13.657h-13.486v-5.292h8.194v-8.365zM664.667 248.897V235.24h5.293v8.365h8.194v5.292h-13.487zM733.293 217.657h-8.194v8.194h-5.292v-13.486h13.486v5.292zM758.388 225.851h-5.292v-8.365h-8.194v-5.292h13.486v13.657zM758.388 235.069v13.658h-13.486v-5.292h8.194v-8.366h5.292zM725.099 243.435h8.194v5.292h-13.486v-13.658h5.292v8.366zM775.63 225.851v-13.486l13.486-.171v5.292h-8.194v8.365h-5.292zM808.919 217.657h-8.195v-5.292h13.487v13.657h-5.292v-8.365zM800.724 243.435h8.195v-8.366h5.292v13.658h-13.487v-5.292zM789.287 243.435v5.292h-13.486v-13.658h5.292v8.366h8.194zM390.164 225.851v-13.486l13.486-.171v5.292h-8.194v8.365h-5.292zM415.258 212.365h13.486v13.657h-5.292v-8.365h-8.194v-5.292zM415.258 243.435h8.194v-8.366h5.292v13.658h-13.486v-5.292zM395.456 243.435h8.194v5.292h-13.486v-13.658h5.292v8.366zM445.303 225.851v-13.486l13.487-.171v5.292h-8.194v8.365h-5.293zM470.227 217.657v-5.292h13.487v13.657h-5.292v-8.365h-8.195zM470.398 243.435h8.194v-8.366h5.292v13.658h-13.486v-5.292zM450.596 243.435h8.194v5.292h-13.487v-13.658h5.293v8.366zM513.929 212.365v5.121h-8.364v8.365h-5.292v-13.486h13.656zM538.17 225.851h-5.292v-8.365h-8.194v-5.292h13.486v13.657zM532.878 235.24h5.292v13.657h-13.486v-5.292h8.194v-8.365zM500.273 235.24h5.292v8.365h8.194v5.292h-13.486V235.24zM568.045 217.657h-8.194v8.194h-5.292v-13.486h13.486v5.292zM593.139 225.851h-5.292v-8.365h-8.194v-5.292h13.486v13.657zM587.847 235.24h5.292v13.657h-13.486v-5.292h8.194v-8.365zM554.559 248.897V235.24h5.292v8.365h8.194v5.292h-13.486zM1062.58 0h-13.49v13.657h5.29V5.292h8.2V0zM1082.38 5.292h-8.19V0h13.48v13.657h-5.29V5.292zM1074.36 31.2402h8.19v-8.365h5.29v13.657h-13.48v-5.292zM1049.09 36.5322v-13.657h5.29v8.365h8.2v5.292h-13.49zM1049.09 66.748V53.0913h13.49v5.292h-8.2v8.3647h-5.29zM1082.38 58.3833h-8.19v-5.4629h13.48v13.657h-5.29v-8.1941zM1074.36 84.3313h8.19v-8.3647h5.29v13.6569h-13.48v-5.2922zM1049.09 89.6235V75.9666h5.29v8.3647h8.2v5.2922h-13.49zM1049.09 119.839v-13.657h13.49v5.292h-8.2v8.365h-5.29zM1082.38 111.474h-8.19v-5.292h13.48v13.657h-5.29v-8.365zM1074.36 137.423h8.19v-8.365h5.29v13.657h-13.48v-5.292zM1049.09 142.715v-13.657h5.29v8.365h8.2v5.292h-13.49zM1049.09 172.931v-13.657h13.49v5.292h-8.2v8.365h-5.29zM1082.38 164.566h-8.19v-5.292h13.48v13.657h-5.29v-8.365zM1074.36 190.343h8.19v-8.365h5.29v13.657h-13.48v-5.292zM1049.09 195.806v-13.657h5.29v8.365h8.2v5.292h-13.49zM1227.83 58.3833h-8.2v8.3647h-5.29V53.0913h13.49v5.292zM1247.63 58.3833h-8.19v-5.4629h13.48v13.657h-5.29v-8.1941zM1239.44 84.3313h8.19v-8.3647h5.29v13.6569h-13.48v-5.2922zM1214.34 75.9666h5.29v8.3647h8.2v5.2922h-13.49V75.9666zM1164.66 119.669h-5.29v-13.657h13.49v5.292h-8.2v8.365zM1197.95 119.669h-5.29v-8.365h-8.19v-5.292h13.48v13.657zM1197.95 129.058v13.657h-13.48v-5.292h8.19v-8.365h5.29zM1159.37 142.715v-13.657h5.29v8.365h8.2v5.292h-13.49zM1227.83 111.474h-8.2v8.365h-5.29v-13.657h13.49v5.292zM1247.63 111.474h-8.19v-5.292h13.48v13.657h-5.29v-8.365zM1239.44 137.423h8.19v-8.365h5.29v13.657h-13.48v-5.292zM1214.34 129.058h5.29v8.365h8.2v5.292h-13.49v-13.657zM1164.66 172.76h-5.29v-13.657h13.49v5.292h-8.2v8.365zM1197.95 159.103v13.657h-5.29v-8.365h-8.19v-5.292h13.48zM1197.95 181.978v13.657h-13.48v-5.292h8.19v-8.365h5.29zM1159.37 195.806v-13.657h5.29v8.365h8.2v5.292h-13.49zM1227.83 164.566h-8.2v8.365h-5.29v-13.657h13.49v5.292zM1247.63 164.566h-8.19v-5.292h13.48v13.657h-5.29v-8.365zM1239.44 190.343h8.19v-8.365h5.29v13.657h-13.48v-5.292zM1214.34 182.149h5.29v8.365h8.2v5.292h-13.49v-13.657zM828.875 66.748V53.0913h13.486v5.292h-8.194v8.3647h-5.292zM853.97 53.0913h13.486v13.4861h-5.292v-8.1941h-8.194v-5.292zM867.456 75.9666v13.6569H853.97v-5.2922h8.194v-8.3647h5.292zM828.875 89.6235V75.9666h5.292v8.3647h8.194v5.2922h-13.486zM883.844 66.748V53.0913h13.486v5.292h-8.194v8.3647h-5.292zM917.133 58.3833h-8.194v-5.4629h13.486v13.657h-5.292v-8.1941zM909.109 84.3313h8.194v-8.3647h5.293v13.6569h-13.487v-5.2922zM889.307 84.3313h8.194v5.2922h-13.486V75.9666h5.292v8.3647zM834.167 119.669h-5.292v-13.657h13.486v5.292h-8.194v8.365zM867.456 106.012v13.657h-5.292v-8.365h-8.194v-5.292h13.486zM867.456 129.058v13.657H853.97v-5.292h8.194v-8.365h5.292zM828.875 142.715v-13.657h5.292v8.365h8.194v5.292h-13.486zM889.136 119.669h-5.292v-13.657h13.486v5.292h-8.194v8.365zM917.133 111.474h-8.194v-5.292h13.486v13.657h-5.292v-8.365zM909.109 137.423h8.194v-8.365h5.293v13.657h-13.487v-5.292zM889.307 137.423h8.194v5.292h-13.486v-13.657h5.292v8.365zM834.167 172.76h-5.292v-13.657h13.486v5.292h-8.194v8.365zM867.456 159.103v13.657h-5.292v-8.365h-8.194v-5.292h13.486zM867.456 181.978v13.657H853.97v-5.292h8.194v-8.365h5.292zM828.875 195.806v-13.657h5.292v8.365h8.194v5.292h-13.486zM889.136 172.76h-5.292v-13.657h13.486v5.292h-8.194v8.365zM917.133 164.566h-8.194v-5.292h13.486v13.657h-5.292v-8.365zM909.109 190.343h8.194v-8.365h5.293v13.657h-13.487v-5.292zM889.307 190.343h8.194v5.292h-13.486v-13.657h5.292v8.365zM1007.61 5.292h-8.194v8.365h-5.292V0h13.486v5.292zM1027.24 5.292h-8.19V0h13.48v13.657h-5.29V5.292zM1019.22 31.2402h8.19v-8.365h5.29v13.657h-13.48v-5.292zM994.124 22.8752h5.292v8.365h8.194v5.292h-13.486v-13.657zM1007.61 53.0913v5.292h-8.194v8.3647h-5.292V53.0913h13.486zM1027.24 58.3833h-8.19v-5.4629h13.48v13.657h-5.29v-8.1941zM1019.22 84.3313h8.19v-8.3647h5.29v13.6569h-13.48v-5.2922zM994.124 75.9666h5.292v8.3647h8.194v5.2922h-13.486V75.9666zM944.276 119.669h-5.292v-13.657h13.486v5.292h-8.194v8.365zM972.272 111.474h-8.194v-5.292h13.487v13.657h-5.293v-8.365zM964.078 137.423h8.194v-8.365h5.293v13.657h-13.487v-5.292zM938.984 142.715v-13.657h5.292v8.365h8.194v5.292h-13.486zM1007.61 106.182v5.292h-8.194v8.365h-5.292v-13.657h13.486zM1027.24 111.474h-8.19v-5.292h13.48v13.657h-5.29v-8.365zM1019.22 137.423h8.19v-8.365h5.29v13.657h-13.48v-5.292zM994.124 129.058h5.292v8.365h8.194v5.292h-13.486v-13.657zM944.276 172.76h-5.292v-13.657h13.486v5.292h-8.194v8.365zM972.272 164.566h-8.194v-5.292h13.487v13.657h-5.293v-8.365zM964.078 190.343h8.194v-8.365h5.293v13.657h-13.487v-5.292zM938.984 195.806v-13.657h5.292v8.365h8.194v5.292h-13.486zM1007.61 159.274v5.292h-8.194v8.365h-5.292v-13.657h13.486zM1027.24 164.566h-8.19v-5.292h13.48v13.657h-5.29v-8.365zM1019.22 190.343h8.19v-8.365h5.29v13.657h-13.48v-5.292zM994.124 182.149h5.292v8.365h8.194v5.292h-13.486v-13.657zM1049.09 225.851v-13.486l13.49-.171v5.292h-8.2v8.365h-5.29zM1082.38 217.657h-8.19v-5.292h13.48v13.657h-5.29v-8.365zM1074.36 243.435h8.19v-8.366h5.29v13.658h-13.48v-5.292zM1049.09 248.897V235.24h5.29v8.365h8.2v5.292h-13.49zM1104.23 225.851v-13.486l13.49-.171v5.292h-8.2v8.365h-5.29zM1137.52 217.657h-8.19v-5.292h13.48v13.657h-5.29v-8.365zM1129.33 243.435h8.19v-8.366h5.29v13.658h-13.48v-5.292zM1109.52 243.435h8.2v5.292h-13.49v-13.658h5.29v8.366zM1159.37 225.851v-13.486l13.49-.171v5.292h-8.2v8.365h-5.29zM1184.47 212.365h13.48v13.657h-5.29v-8.365h-8.19v-5.292zM1184.47 243.435h8.19v-8.366h5.29v13.658h-13.48v-5.292zM1159.37 248.897V235.24h5.29v8.365h8.2v5.292h-13.49zM1227.83 217.657h-8.2v8.194h-5.29v-13.486h13.49v5.292zM1247.63 217.657h-8.19v-5.292h13.48v13.657h-5.29v-8.365zM1239.44 243.435h8.19v-8.366h5.29v13.658h-13.48v-5.292zM1214.34 235.24h5.29v8.365h8.2v5.292h-13.49V235.24zM828.875 225.851v-13.486l13.486-.171v5.292h-8.194v8.365h-5.292zM853.97 212.365h13.486v13.657h-5.292v-8.365h-8.194v-5.292zM853.97 243.435h8.194v-8.366h5.292v13.658H853.97v-5.292zM828.875 248.897V235.24h5.292v8.365h8.194v5.292h-13.486zM883.844 225.851v-13.486l13.486-.171v5.292h-8.194v8.365h-5.292zM917.133 217.657h-8.194v-5.292h13.486v13.657h-5.292v-8.365zM909.109 243.435h8.194v-8.366h5.293v13.658h-13.487v-5.292zM889.307 243.435h8.194v5.292h-13.486v-13.658h5.292v8.366zM938.984 225.851v-13.486l13.486-.171v5.292h-8.194v8.365h-5.292zM972.272 217.657h-8.194v-5.292h13.487v13.657h-5.293v-8.365zM964.078 243.435h8.194v-8.366h5.293v13.658h-13.487v-5.292zM938.984 248.897V235.24h5.292v8.365h8.194v5.292h-13.486zM1007.61 212.365v5.121h-8.194v8.365h-5.292v-13.486h13.486zM1027.24 217.657h-8.19v-5.292h13.48v13.657h-5.29v-8.365zM1019.22 243.435h8.19v-8.366h5.29v13.658h-13.48v-5.292zM994.124 235.24h5.292v8.365h8.194v5.292h-13.486V235.24zM1545.52 66.748V53.0913h13.49v5.292h-8.2v8.3647h-5.29zM1578.81 58.3833h-8.19v-5.4629h13.48v13.657h-5.29v-8.1941zM1570.62 84.3313h8.19v-8.3647h5.29v13.6569h-13.48v-5.2922zM1545.52 75.9666h5.29v8.3647h8.2v5.2922h-13.49V75.9666zM1550.81 119.669h-5.29v-13.657h13.49v5.292h-8.2v8.365zM1578.81 111.474h-8.19v-5.292h13.48v13.657h-5.29v-8.365zM1570.62 137.423h8.19v-8.365h5.29v13.657h-13.48v-5.292zM1545.52 129.058h5.29v8.365h8.2v5.292h-13.49v-13.657zM1550.81 172.76h-5.29v-13.657h13.49v5.292h-8.2v8.365zM1578.81 164.566h-8.19v-5.292h13.48v13.657h-5.29v-8.365zM1570.62 190.343h8.19v-8.365h5.29v13.657h-13.48v-5.292zM1545.52 182.149h5.29v8.365h8.2v5.292h-13.49v-13.657zM1600.66 66.748V53.0913h13.49v5.292h-8.2v8.3647h-5.29zM1633.95 58.3833h-8.19v-5.4629h13.48v13.657h-5.29v-8.1941zM1625.76 84.3313h8.19v-8.3647h5.29v13.6569h-13.48v-5.2922zM1614.15 84.3313v5.2922h-13.49V75.9666h5.29v8.3647h8.2zM1655.63 66.748V53.0913h13.49v5.292h-8.2v8.3647h-5.29zM1680.72 58.3833v-5.4629h13.49v13.657h-5.29v-8.1941h-8.2zM1680.72 84.3313h8.2v-8.3647h5.29v13.6569h-13.49v-5.2922zM1669.29 84.3313v5.2922h-13.49V75.9666h5.29v8.3647h8.2zM1600.66 119.839v-13.657h13.49v5.292h-8.2v8.365h-5.29zM1633.95 111.474h-8.19v-5.292h13.48v13.657h-5.29v-8.365zM1625.76 137.423h8.19v-8.365h5.29v13.657h-13.48v-5.292zM1614.15 142.715h-13.49v-13.657h5.29v8.365h8.2v5.292zM1655.63 119.839v-13.657h13.49v5.292h-8.2v8.365h-5.29zM1688.92 111.474h-8.2v-5.292h13.49v13.657h-5.29v-8.365zM1680.72 137.423h8.2v-8.365h5.29v13.657h-13.49v-5.292zM1669.12 142.715h-13.49v-13.657h5.29v8.365h8.2v5.292zM1600.66 172.931v-13.657h13.49v5.292h-8.2v8.365h-5.29zM1633.95 164.566h-8.19v-5.292h13.48v13.657h-5.29v-8.365zM1625.76 190.343h8.19v-8.365h5.29v13.657h-13.48v-5.292zM1614.15 195.635h-13.49v-13.657h5.29v8.365h8.2v5.292zM1655.63 172.931v-13.657h13.49v5.292h-8.2v8.365h-5.29zM1688.92 164.566h-8.2v-5.292h13.49v13.657h-5.29v-8.365zM1680.72 190.343h8.2v-8.365h5.29v13.657h-13.49v-5.292zM1669.12 195.635h-13.49v-13.657h5.29v8.365h8.2v5.292zM1270.16 66.748V53.0913h13.49v5.292h-8.19v8.3647h-5.3zM1295.26 53.0913h13.48v13.4861h-5.29v-8.1941h-8.19v-5.292zM1308.74 75.9666v13.6569h-13.48v-5.2922h8.19v-8.3647h5.29zM1275.46 84.3313h8.19v5.2922h-13.49V75.9666h5.3v8.3647zM1275.46 119.669h-5.3v-13.657h13.49v5.292h-8.19v8.365zM1303.45 111.474h-8.19v-5.292h13.48v13.657h-5.29v-8.365zM1308.74 142.715h-13.48v-5.292h8.19v-8.365h5.29v13.657zM1275.46 137.423h8.19v5.292h-13.49v-13.657h5.3v8.365zM1275.46 172.76h-5.3v-13.657h13.49v5.292h-8.19v8.365zM1303.45 164.566h-8.19v-5.292h13.48v13.657h-5.29v-8.365zM1308.74 195.635h-13.48v-5.292h8.19v-8.365h5.29v13.657zM1275.46 190.343h8.19v5.292h-13.49v-13.657h5.3v8.365zM1330.6 172.76h-5.3v-13.657h13.49v5.292h-8.19v8.365zM1350.23 164.566v-5.292h13.48v13.657h-5.29v-8.365h-8.19zM1350.4 190.343h8.19v-8.365h5.29v13.657h-13.48v-5.292zM1330.6 190.343h8.19v5.292h-13.49v-13.657h5.3v8.365zM1393.76 111.474h-8.2v8.365h-5.29v-13.657h13.49v5.292zM1405.37 111.474v-5.292h13.48v13.657h-5.29v-8.365h-8.19zM1405.54 137.423h8.19v-8.365h5.29v13.657h-13.48v-5.292zM1380.27 129.058h5.29v8.365h8.2v5.292h-13.49v-13.657zM1440.7 119.669h-5.29v-13.657h13.49v5.292h-8.2v8.365zM1460.51 111.474v-5.292h13.48v13.657h-5.29v-8.365h-8.19zM1460.51 137.423h8.19v-8.365h5.29v13.657h-13.48v-5.292zM1435.41 142.715v-13.657h5.29v8.365h8.2v5.292h-13.49zM1393.93 159.274v5.292h-8.37v8.365h-5.29v-13.657h13.66zM1405.37 164.566v-5.292h13.48v13.657h-5.29v-8.365h-8.19zM1405.54 190.343h8.19v-8.365h5.29v13.657h-13.48v-5.292zM1380.27 182.149h5.29v8.365h8.2v5.292h-13.49v-13.657zM1440.7 172.76h-5.29v-13.657h13.49v5.292h-8.2v8.365zM1460.51 164.566v-5.292h13.48v13.657h-5.29v-8.365h-8.19zM1460.51 190.343h8.19v-8.365h5.29v13.657h-13.48v-5.292zM1435.41 195.806v-13.657h5.29v8.365h8.2v5.292h-13.49zM1558.15 217.657h-8.19v8.194h-5.29v-13.486h13.48v5.292zM1583.25 225.851h-5.29v-8.365h-8.2v-5.292h13.49v13.657zM1577.96 235.24h5.29v13.657h-13.49v-5.292h8.2v-8.365zM1544.67 248.897V235.24h5.29v8.365h8.19v5.292h-13.48zM1613.29 217.657h-8.19v8.194h-5.29v-13.486h13.48v5.292zM1638.39 225.851h-5.29v-8.365h-8.2v-5.292h13.49v13.657zM1638.39 235.069v13.658h-13.49v-5.292h8.2v-8.366h5.29zM1605.1 243.435h8.19v5.292h-13.48v-13.658h5.29v8.366zM1655.63 225.851v-13.486l13.49-.171v5.292h-8.2v8.365h-5.29zM1688.92 217.657h-8.2v-5.292h13.49v13.657h-5.29v-8.365zM1680.72 243.435h8.2v-8.366h5.29v13.658h-13.49v-5.292zM1669.29 243.435v5.292h-13.49v-13.658h5.29v8.366h8.2zM1270.16 225.851v-13.486l13.49-.171v5.292h-8.19v8.365h-5.3zM1295.26 212.365h13.48v13.657h-5.29v-8.365h-8.19v-5.292zM1295.26 243.435h8.19v-8.366h5.29v13.658h-13.48v-5.292zM1275.46 243.435h8.19v5.292h-13.49v-13.658h5.3v8.366zM1325.3 225.851v-13.486l13.49-.171v5.292h-8.19v8.365h-5.3zM1350.23 217.657v-5.292h13.48v13.657h-5.29v-8.365h-8.19zM1350.4 243.435h8.19v-8.366h5.29v13.658h-13.48v-5.292zM1330.6 243.435h8.19v5.292h-13.49v-13.658h5.3v8.366zM1393.93 212.365v5.121h-8.37v8.365h-5.29v-13.486h13.66zM1418.17 225.851h-5.29v-8.365h-8.2v-5.292h13.49v13.657zM1412.88 235.24h5.29v13.657h-13.49v-5.292h8.2v-8.365zM1380.27 235.24h5.29v8.365h8.2v5.292h-13.49V235.24zM1448.04 217.657h-8.19v8.194h-5.29v-13.486h13.48v5.292zM1473.14 225.851h-5.29v-8.365h-8.2v-5.292h13.49v13.657zM1467.85 235.24h5.29v13.657h-13.49v-5.292h8.2v-8.365zM1434.56 248.897V235.24h5.29v8.365h8.19v5.292h-13.48z" fill="#C6C0B8" fill-opacity=".15"/></svg>