<svg width="160" height="59" fill="none" xmlns="http://www.w3.org/2000/svg"><path d="M160.001 0H144.57v6.09239h9.417v9.53941h6.014V0z" fill="#A51A43"/><path d="M153.986 21.6445v31.2636H0v6.0924h160v-37.356h-6.014zM138.635 0H0v46.8152h6.01385V6.09239H138.635V0z" fill="#7A442D"/><path d="M26.1122 29.581c3.0069 0 4.7478-1.8437 4.7478-4.2486 0-2.7256-1.8992-4.1685-4.8269-4.1685h-4.6687v8.4171h4.7478zM15.4297 15.793h11.0781c6.4887 0 10.366 3.8478 10.366 9.5394 0 6.3329-4.906 9.6195-10.999 9.6195h-4.5104v8.2568h-5.9347V15.793zM58.7924 15.793h6.4887L54.836 36.956c-2.3739 4.8098-5.0643 6.6535-8.8626 6.6535-2.0573 0-4.1147-.5611-5.8555-1.6032l2.2947-4.409c.9496.5612 2.0574.8818 3.2443.8818 1.1078 0 2.2948-.481 3.4026-2.1644L38.2188 15.793h6.6468l7.3591 14.5095 6.5677-14.5095zM65.043 29.5004c.1582-8.0163 6.6469-14.3492 14.5598-14.1888 3.7982.0801 7.4382 1.6834 10.0495 4.4891l-3.5609 4.1685c-2.0573-1.9239-3.8773-3.0462-6.9634-3.0462-4.5895 0-7.8338 3.8478-7.8338 8.6576 0 4.8098 3.2443 8.6576 7.8338 8.6576 3.0861 0 4.9852-1.2826 7.1217-3.2065l3.7982 4.0883c-2.7695 3.0462-5.8556 4.6495-11.0781 4.6495-7.5965.0801-13.7686-6.0123-13.9268-13.6278.0791-.3206.0791-.4809 0-.6413zM117.902 43.2069h-5.856V25.2503l-11.869 17.9566h-5.6184v-27.496h5.9344v18.0367l11.87-18.0367h5.539v27.496zM138.636 32.9479c-2.216 1.2024-4.669 1.9239-7.122 2.004-5.381 0-9.1-2.8858-9.1-9.2187V15.793h5.935v8.2568c0 3.447 1.345 5.3709 4.352 5.3709 2.136 0 4.194-.5612 5.935-1.7636V15.793h5.934v27.4959h-5.934v-10.341z" fill="#A61744"/></svg>