<svg width="136" height="51" fill="none" xmlns="http://www.w3.org/2000/svg"><g clip-path="url(#clip0)"><path d="M135.999.02344h-13.116v5.16304h8.004v8.08422h5.112V.02344z" fill="#A51A43"/><path d="M130.888 18.3672v26.4946H0v5.163h136V18.3672h-5.112zM117.84.02344H0V39.6974h5.11177V5.18648H117.84V.02344z" fill="#7A442D"/><path d="M22.1973 25.091c2.5559 0 4.0356-1.5625 4.0356-3.6005 0-2.3098-1.6142-3.5326-4.1029-3.5326h-3.9683v7.1331h4.0356zm-9.0801-11.6848h9.4164c5.5153 0 8.8111 3.2609 8.8111 8.0843 0 5.3668-4.1701 8.1522-9.3492 8.1522h-3.8338v6.9972h-5.0445V13.4062zM49.9759 13.4062h5.5153L46.6129 31.341c-2.0178 4.0761-4.3046 5.6386-7.5331 5.6386-1.7488 0-3.4976-.4755-4.9773-1.3587l1.9506-3.7364c.8071.4756 1.7487.7473 2.7576.7473.9417 0 1.9506-.4076 2.8922-1.8342l-9.2146-17.3914h5.6498l6.2552 12.2962 5.5826-12.2962zM55.2891 25.0231c.1345-6.7935 5.6498-12.1604 12.3758-12.0245 3.2285.068 6.3225 1.4266 8.5421 3.8044l-3.0267 3.5326c-1.7488-1.6305-3.2958-2.5815-5.9189-2.5815-3.9011 0-6.6588 3.2608-6.6588 7.3369s2.7577 7.337 6.6588 7.337c2.6231 0 4.2374-1.087 6.0534-2.7174l3.2285 3.4647c-2.3541 2.5815-4.9773 3.9402-9.4165 3.9402-6.4569.0679-11.7032-5.0951-11.8377-11.5489.0672-.2718.0672-.4077 0-.5435zM100.217 36.6376h-4.9775V21.4202l-10.089 15.2174H80.375V13.3359h5.0445v15.2854l10.089-15.2854h4.7085v23.3017zM117.839 27.9443c-1.883 1.019-3.968 1.6304-6.053 1.6984-4.574 0-7.735-2.4457-7.735-7.8125v-8.424h5.044v6.9973c0 2.9212 1.144 4.5517 3.7 4.5517 1.816 0 3.564-.4756 5.044-1.4946V13.4062h5.045v23.3017h-5.045v-8.7636z" fill="#A61744"/></g><defs><clipPath id="clip0"><path fill="#fff" transform="translate(0 .02344)" d="M0 0h136v50H0z"/></clipPath></defs></svg>
