<svg width="103" height="125" fill="none" xmlns="http://www.w3.org/2000/svg"><g filter="url(#filter0_d)"><path d="M51.2556 16.4961C35.1248 16.4961 22 29.7746 22 46.096c0 4.2572.8613 8.3219 2.5586 12.0821 7.3147 16.1938 21.339 33.291 25.464 38.1448.3091.3629.7596.5719 1.2338.5719.4741 0 .9247-.209 1.2337-.5719 4.1234-4.8529 18.1477-21.9493 25.4648-38.1448 1.6982-3.7602 2.5586-7.8249 2.5586-12.0821-.0016-16.3214-13.1264-29.5999-29.2579-29.5999zm0 44.9741c-8.3793 0-15.1971-6.8976-15.1971-15.3751 0-8.4782 6.8178-15.3759 15.1971-15.3759s15.197 6.8977 15.197 15.3759c.0008 8.4775-6.8169 15.3751-15.197 15.3751z" fill="#BF202D"/><path d="M51.2556 16.4961C35.1248 16.4961 22 29.7746 22 46.096c0 4.2572.8613 8.3219 2.5586 12.0821 7.3147 16.1938 21.339 33.291 25.464 38.1448.3091.3629.7596.5719 1.2338.5719.4741 0 .9247-.209 1.2337-.5719 4.1234-4.8529 18.1477-21.9493 25.4648-38.1448 1.6982-3.7602 2.5586-7.8249 2.5586-12.0821-.0016-16.3214-13.1264-29.5999-29.2579-29.5999zm0 44.9741c-8.3793 0-15.1971-6.8976-15.1971-15.3751 0-8.4782 6.8178-15.3759 15.1971-15.3759s15.197 6.8977 15.197 15.3759c.0008 8.4775-6.8169 15.3751-15.197 15.3751z" fill="url(#paint0_linear)" fill-opacity=".74"/><path d="M23.6472 58.5896l.0001.0002c7.3781 16.3343 21.4866 33.5249 25.6133 38.3807l.0007.0008c.4977.5843 1.2258.9235 1.9951.9235.7693 0 1.4974-.3392 1.995-.9235l.0008-.0009c4.125-4.8549 18.2335-22.0447 25.6141-38.3805v-.0002c1.7585-3.8938 2.6472-8.0993 2.6472-12.4937v-.0001c-.0016-16.8625-13.5631-30.5998-30.2579-30.5998C34.5616 15.4961 21 29.2334 21 46.096c0 4.3945.8896 8.5999 2.6472 12.4936zm41.8054-12.4945v.0001c.0008 7.9361-6.3801 14.375-14.197 14.375-7.8161 0-14.1971-6.4389-14.1971-14.3751 0-7.937 6.381-14.3759 14.1971-14.3759 7.816 0 14.197 6.4389 14.197 14.3759z" stroke="#fff" stroke-width="2"/></g><defs><linearGradient id="paint0_linear" x1="80.7594" y1="27.5075" x2="22.736" y2="27.4196" gradientUnits="userSpaceOnUse"><stop stop-color="#F45C1B"/><stop offset="1" stop-color="#AA4141" stop-opacity="0"/></linearGradient><filter id="filter0_d" x="0" y=".49609" width="102.514" height="124.399" filterUnits="userSpaceOnUse" color-interpolation-filters="sRGB"><feFlood flood-opacity="0" result="BackgroundImageFix"/><feColorMatrix in="SourceAlpha" values="0 0 0 0 0 0 0 0 0 0 0 0 0 0 0 0 0 0 127 0" result="hardAlpha"/><feOffset dy="6"/><feGaussianBlur stdDeviation="10"/><feColorMatrix values="0 0 0 0 0 0 0 0 0 0 0 0 0 0 0 0 0 0 0.2 0"/><feBlend in2="BackgroundImageFix" result="effect1_dropShadow"/><feBlend in="SourceGraphic" in2="effect1_dropShadow" result="shape"/></filter></defs></svg>