<svg width="138" height="140" fill="none" xmlns="http://www.w3.org/2000/svg"><path d="M50.7989 100.328V42.6014c0-1.7938 3.0664-2.7722 5.1842-1.6307l45.5309 28.5371c1.883.9784 1.883 3.0984 0 4.0768L55.9831 101.796c-2.1178 1.304-5.1842.163-5.1842-1.468z" fill="#fff"/><path fill-rule="evenodd" clip-rule="evenodd" d="M137.677 70.3163c0 38.4487-30.631 69.6167-68.4164 69.6167-37.7856 0-68.41685-31.168-68.41685-69.6167C.84375 31.8678 31.475.69922 69.2606.69922c37.7854 0 68.4164 31.16858 68.4164 69.61708zm-9.122 0c0 33.3217-26.547 60.3347-59.2944 60.3347-32.7475 0-59.29461-27.013-59.29461-60.3347 0-33.322 26.54711-60.3348 59.29461-60.3348 32.7474 0 59.2944 27.0128 59.2944 60.3348z" fill="#fff"/></svg>