<svg width="145" height="151" fill="none" xmlns="http://www.w3.org/2000/svg"><path d="M52.9365 107.863V45.8474c0-1.927 3.2494-2.9781 5.4936-1.7518l48.2479 30.6573c1.995 1.0511 1.995 3.3286 0 4.3797L58.4301 109.44c-2.2442 1.401-5.4936.175-5.4936-1.577z" fill="#fff"/><path fill-rule="evenodd" clip-rule="evenodd" d="M145 75.6214c0 41.3056-32.459 74.7896-72.5 74.7896-40.0406 0-72.5-33.484-72.5-74.7896C0 34.3164 32.4594.83203 72.5.83203c40.041 0 72.5 33.48437 72.5 74.78937zm-9.667 0c0 35.7976-28.131 64.8176-62.833 64.8176-34.7019 0-62.83333-29.02-62.83333-64.8176C9.66667 39.8237 37.7981 10.804 72.5 10.804c34.702 0 62.833 29.0197 62.833 64.8174z" fill="#fff"/></svg>