<svg width="122" height="622" fill="none" xmlns="http://www.w3.org/2000/svg"><path d="M25.2469 6.45508V.99218h13.4863V14.6494h-5.292V6.45508h-8.1943zM.15234 14.8198V1.16309H13.6387v5.29199H5.44446v8.36472H.15234zM25.2469 32.4033h8.1943v-8.3652h5.292v13.6572H25.2469v-5.292zM13.8093 32.4033v5.292H.32312V24.0381h5.29211v8.3652h8.19407zM.15234 173.923v-13.486l13.48636-.171v5.292H5.44446v8.365H.15234zM33.4412 165.729h-8.1943v-5.292h13.4863v13.657h-5.292v-8.365zM25.2469 191.506h8.1943v-8.365h5.292v13.657H25.2469v-5.292zM13.8093 191.506v5.292H.32312v-13.657h5.29211v8.365h8.19407zM.15234 280.105v-13.657H13.6387v5.292H5.44446v8.365H.15234zM33.4412 271.74h-8.1943v-5.292h13.4863v13.657h-5.292v-8.365zM25.2469 297.688h8.1943v-8.364h5.292v13.656H25.2469v-5.292zM13.6387 302.98H.15234v-13.486h5.29212v8.194h8.19424v5.292zM78.7391 6.45508V.99218h13.4862V14.6494h-5.292V6.45508h-8.1942zM53.6445 1.16309V14.8198h5.2921V6.45508h8.1943V1.16309H53.6445zM86.9333 32.4033h-8.1942v5.292h13.4862V24.0381h-5.292v8.3652zM67.3015 37.6953v-5.292h-8.1941v-8.3652h-5.2921v13.6572h13.4862zM53.6445 54.2539v13.6572h5.2921v-8.3652h8.1943v-5.292H53.6445zM78.7391 59.5459h8.1942v8.3652h5.292V54.2539H78.7391v5.292zM86.9333 85.4941h-8.1942v5.292h13.4862V77.1299h-5.292v8.3642zM53.6445 90.7861h13.4864v-5.292h-8.1943v-8.3642h-5.2921v13.6562zM53.6445 107.346v13.656h5.2921v-8.364h8.1943v-5.292H53.6445zM78.7391 112.638h8.1942v8.364h5.292v-13.656H78.7391v5.292zM86.9333 138.415h-8.1942v5.292h13.4862V130.05h-5.292v8.365zM53.6445 143.707h13.4864v-5.292h-8.1943v-8.365h-5.2921v13.657zM53.6445 160.437v13.486h5.2921v-8.365h8.1943v-5.292l-13.4864.171zM78.7391 165.729h8.1942v8.365h5.292v-13.657H78.7391v5.292zM86.9333 191.506h-8.1942v5.292h13.4862v-13.657h-5.292v8.365zM67.3015 196.798v-5.292h-8.1941v-8.365h-5.2921v13.657h13.4862zM53.6445 266.448v13.657h5.2921v-8.365h8.1943v-5.292H53.6445zM78.7391 271.74h8.1942v8.365h5.292v-13.657H78.7391v5.292zM86.9333 297.688h-8.1942v5.292h13.4862v-13.656h-5.292v8.364zM53.6445 302.98h13.4864v-5.292h-8.1943v-8.194h-5.2921v13.486zM108.152 1.16309V14.8198h5.292V6.45508h8.195V1.16309h-13.487zM121.809 37.6953v-5.292h-8.194v-8.3652h-5.292v13.6572h13.486zM108.152 54.2539v13.6572h5.292v-8.3652h8.195v-5.292h-13.487zM108.152 90.7861h13.487v-5.292h-8.195v-8.3642h-5.292v13.6562zM108.152 107.346v13.656h5.292v-8.364h8.195v-5.292h-13.487zM108.152 143.707h13.487v-5.292h-8.195v-8.365h-5.292v13.657zM108.152 160.437v13.486h5.292v-8.365h8.195v-5.292l-13.487.171zM121.809 196.798v-5.292h-8.194v-8.365h-5.292v13.657h13.486zM108.152 213.357v13.657h5.292v-8.365h8.195v-5.292h-13.487zM121.809 249.889v-5.292h-8.194v-8.365h-5.292v13.657h13.486zM108.152 266.448v13.657h5.292v-8.365h8.195v-5.292h-13.487zM108.152 302.98h13.487v-5.292h-8.195v-8.194h-5.292v13.486zM108.152 319.54v13.656h5.292v-8.364h8.195v-5.292h-13.487zM113.444 342.415h-5.292v13.657h13.487v-5.292h-8.195v-8.365zM.15234 545.095v-13.487l13.48636-.17v5.292H5.44446v8.365H.15234zM33.4412 536.9h-8.1943v-5.292h13.4863v13.658h-5.292V536.9zM25.2469 562.678h8.1943v-8.365h5.292v13.657H25.2469v-5.292zM13.8093 562.678v5.292H.32312v-13.657h5.29211v8.365h8.19407zM78.7391 377.627v-5.463h13.4862v13.657h-5.292v-8.194h-8.1942zM53.6445 372.335v13.657h5.2921v-8.365h8.1943v-5.292H53.6445zM86.9333 403.575h-8.1942v5.292h13.4862V395.21h-5.292v8.365zM67.3015 408.867v-5.292h-8.1941v-8.365h-5.2921v13.657h13.4862zM53.6445 478.518v13.656h5.2921v-8.364h8.1943v-5.292H53.6445zM78.7391 483.81h8.1942v8.364h5.292v-13.656H78.7391v5.292zM86.9333 509.587h-8.1942v5.292h13.4862v-13.657h-5.292v8.365zM53.6445 514.879h13.4864v-5.292h-8.1943v-8.365h-5.2921v13.657zM53.6445 531.608v13.487h5.2921v-8.365h8.1943v-5.292l-13.4864.17zM78.7391 536.9h8.1942v8.366h5.292v-13.658H78.7391v5.292zM86.9333 562.678h-8.1942v5.292h13.4862v-13.657h-5.292v8.365zM67.3015 567.97v-5.292h-8.1941v-8.365h-5.2921v13.657h13.4862zM108.152 372.335v13.657h5.292v-8.365h8.195v-5.292h-13.487zM121.809 408.867v-5.292h-8.194v-8.365h-5.292v13.657h13.486zM108.152 425.426v13.657h5.292v-8.365h8.195v-5.292h-13.487zM108.152 461.958h13.487v-5.292h-8.195v-8.364h-5.292v13.656zM108.152 478.518v13.656h5.292v-8.364h8.195v-5.292h-13.487zM108.152 514.879h13.487v-5.292h-8.195v-8.365h-5.292v13.657zM108.152 531.608v13.487h5.292v-8.365h8.195v-5.292l-13.487.17zM121.809 567.97v-5.292h-8.194v-8.365h-5.292v13.657h13.486zM108.152 584.529v13.657h5.292v-8.365h8.195v-5.292h-13.487zM121.809 621.061v-5.292h-8.194v-8.365h-5.292v13.657h13.486z" fill="#BF8468" fill-opacity=".46"/></svg>