<svg width="138" height="140" viewBox="0 0 138 140" fill="none" xmlns="http://www.w3.org/2000/svg">
<path d="M50.7989 100.328V42.6014C50.7989 40.8076 53.8653 39.8292 55.9831 40.9707L101.514 69.5078C103.397 70.4862 103.397 72.6062 101.514 73.5846L55.9831 101.796C53.8653 103.1 50.7989 101.959 50.7989 100.328Z" fill="white"/>
<path fill-rule="evenodd" clip-rule="evenodd" d="M137.677 70.3163C137.677 108.765 107.046 139.933 69.2606 139.933C31.475 139.933 0.84375 108.765 0.84375 70.3163C0.84375 31.8678 31.475 0.699219 69.2606 0.699219C107.046 0.699219 137.677 31.8678 137.677 70.3163ZM128.555 70.3163C128.555 103.638 102.008 130.651 69.2606 130.651C36.5131 130.651 9.96599 103.638 9.96599 70.3163C9.96599 36.9943 36.5131 9.9815 69.2606 9.9815C102.008 9.9815 128.555 36.9943 128.555 70.3163Z" fill="white"/>
</svg>
