<svg width="122" height="386" fill="none" xmlns="http://www.w3.org/2000/svg"><path d="M25.0946 5.62305V.16015h13.4862V13.8174h-5.292V5.62305h-8.1942zM0 13.9878V.33105h13.4863v5.292H5.29211v8.36475H0zM25.0946 31.5713h8.1942v-8.3652h5.292v13.6572H25.0946v-5.292zM13.657 31.5713v5.292H.17078V23.2061h5.29211v8.3652H13.657zM0 173.091v-13.487l13.4863-.17v5.292H5.29211v8.365H0zM33.2888 164.896h-8.1942v-5.292h13.4862v13.658h-5.292v-8.366zM25.0946 190.674h8.1942v-8.365h5.292v13.657H25.0946v-5.292zM13.657 190.674v5.292H.17078v-13.657h5.29211v8.365H13.657zM0 279.273v-13.657h13.4863v5.292H5.29211v8.365H0zM33.2888 270.908h-8.1942v-5.292h13.4862v13.657h-5.292v-8.365zM25.0946 296.856h8.1942v-8.364h5.292v13.656H25.0946v-5.292zM13.4863 302.148H0v-13.486h5.29211v8.194h8.19419v5.292zM78.5868 5.62305V.16015H92.073V13.8174h-5.292V5.62305h-8.1942zM53.4922.33105V13.9878h5.2921V5.62305h8.1942v-5.292H53.4922zM86.781 31.5713h-8.1942v5.292H92.073V23.2061h-5.292v8.3652zM67.1492 36.8633v-5.292h-8.1941v-8.3652H53.663v13.6572h13.4862zM53.4922 53.4219v13.6572h5.2921v-8.3652h8.1942v-5.292H53.4922zM78.5868 58.7139h8.1942v8.3652h5.292V53.4219H78.5868v5.292zM86.781 84.6621h-8.1942v5.292H92.073V76.2979h-5.292v8.3642zM53.4922 89.9541h13.4863v-5.292h-8.1942v-8.3642h-5.2921v13.6562zM53.4922 106.514v13.656h5.2921v-8.364h8.1942v-5.292H53.4922zM78.5868 111.806h8.1942v8.364h5.292v-13.656H78.5868v5.292zM86.781 137.583h-8.1942v5.292H92.073v-13.657h-5.292v8.365zM53.4922 142.875h13.4863v-5.292h-8.1942v-8.365h-5.2921v13.657zM53.4922 159.604v13.487h5.2921v-8.365h8.1942v-5.292l-13.4863.17zM78.5868 164.896h8.1942v8.366h5.292v-13.658H78.5868v5.292zM86.781 190.674h-8.1942v5.292H92.073v-13.657h-5.292v8.365zM67.1492 195.966v-5.292h-8.1941v-8.365H53.663v13.657h13.4862zM53.4922 265.616v13.657h5.2921v-8.365h8.1942v-5.292H53.4922zM78.5868 270.908h8.1942v8.365h5.292v-13.657H78.5868v5.292zM86.781 296.856h-8.1942v5.292H92.073v-13.656h-5.292v8.364zM53.4922 302.148h13.4863v-5.292h-8.1942v-8.194h-5.2921v13.486zM108 .33105V13.9878h5.292V5.62305h8.194v-5.292H108zM121.657 36.8633v-5.292h-8.194v-8.3652h-5.292v13.6572h13.486zM108 53.4219v13.6572h5.292v-8.3652h8.194v-5.292H108zM108 89.9541h13.486v-5.292h-8.194v-8.3642H108v13.6562zM108 106.514v13.656h5.292v-8.364h8.194v-5.292H108zM108 142.875h13.486v-5.292h-8.194v-8.365H108v13.657zM108 159.604v13.487h5.292v-8.365h8.194v-5.292l-13.486.17zM121.657 195.966v-5.292h-8.194v-8.365h-5.292v13.657h13.486zM108 212.525v13.657h5.292v-8.365h8.194v-5.292H108zM121.657 249.057v-5.292h-8.194V235.4h-5.292v13.657h13.486zM108 265.616v13.657h5.292v-8.365h8.194v-5.292H108zM108 302.148h13.486v-5.292h-8.194v-8.194H108v13.486zM108 318.708v13.656h5.292V324h8.194v-5.292H108zM113.292 341.583H108v13.657h13.486v-5.292h-8.194v-8.365zM78.5868 376.795v-5.463H92.073v13.657h-5.292v-8.194h-8.1942zM53.4922 371.503v13.657h5.2921v-8.365h8.1942v-5.292H53.4922zM108 371.503v13.657h5.292v-8.365h8.194v-5.292H108z" fill="#BF8468" fill-opacity=".46"/></svg>