<svg width="44" height="59" fill="none" xmlns="http://www.w3.org/2000/svg"><path d="M21.9952 37.7912c8.5534 0 15.4874-6.934 15.4874-15.4874 0-8.5535-6.934-15.4874-15.4874-15.4874S6.5078 13.7503 6.5078 22.3038c0 8.5534 6.934 15.4874 15.4874 15.4874z" fill="#fff"/><path fill-rule="evenodd" clip-rule="evenodd" d="M44 22.3399c-.0012-12.1325-9.8686-22-22.0008-22C9.8675.3398 0 10.2074 0 22.34c0 3.1547.6469 6.1853 1.9298 8.9946 5.1292 11.224 14.8871 22.9638 17.71 26.247l.0014.0016a3.1134 3.1134 0 004.7171 0l.0014-.0017c2.8218-3.2824 12.5793-15.0212 17.7102-26.2463C43.3537 28.5256 44 25.4943 44 22.3399zm-3.7491 8.164c-5.002 10.9431-14.589 22.4949-17.4078 25.7739a1.1133 1.1133 0 01-1.6868 0C18.3365 52.9982 8.7494 41.4459 3.7491 30.5039 2.5888 27.9631 2 25.2167 2 22.3401 2 11.312 10.9722 2.3398 21.9992 2.3398c11.0276 0 19.9997 8.9722 20.0008 20.0003 0 2.8766-.5882 5.623-1.7491 8.1638z" fill="#fff"/></svg>