<svg width="17" height="17" fill="none" xmlns="http://www.w3.org/2000/svg"><path d="M13.3234 8.54c-.3686 0-.6674.3023-.6674.6752v5.1217c0 .5691-.4576 1.032-1.0201 1.032h-9.281c-.5625 0-1.0201-.4629-1.0201-1.032V4.9472c0-.569.4576-1.032 1.02-1.032h5.0625c.3685 0 .6674-.3024.6674-.6753s-.2989-.6752-.6674-.6752H2.3549C1.0564 2.5647 0 3.6335 0 4.9472v9.3897c0 1.3137 1.0564 2.3825 2.3549 2.3825h9.281c1.2985 0 2.3549-1.0688 2.3549-2.3825V9.2152c0-.3729-.2988-.6752-.6674-.6752zM15.8545.004h-5.0624c-.3686 0-.6674.3022-.6674.6751 0 .373.2988.6752.6674.6752h4.395v4.4465c0 .3729.2988.6752.6674.6752s.6674-.3023.6674-.6752V.6791c0-.3729-.2988-.6752-.6674-.6752z" fill="#fff"/><path d="M16.3265.2017a.662.662 0 00-.9439 0l-9.281 9.3897c-.2606.2637-.2606.6912 0 .9549a.6616.6616 0 00.9439 0l9.281-9.3897c.2606-.2637.2606-.6912 0-.955z" fill="#fff"/></svg>